<svg width="24" height="24" viewBox="0 0 24 24" fill="none" xmlns="http://www.w3.org/2000/svg">
<path d="M13.9434 3.00211C14.3802 2.97732 14.7828 3.23896 14.9365 3.64859L17.6934 11.0002H21C21.5523 11.0002 22 11.4479 22 12.0002C22 12.5524 21.5523 13.0002 21 13.0002H17C16.5833 13.0002 16.2099 12.7418 16.0635 12.3517L14.1904 7.35758L10.9697 20.2423C10.8635 20.667 10.4937 20.9733 10.0566 20.9982C9.6198 21.023 9.21726 20.7613 9.06348 20.3517L6.30664 13.0002H3C2.44773 13.0002 2.00002 12.5524 2 12.0002C2 11.4479 2.44772 11.0002 3 11.0002H7C7.41673 11.0002 7.79008 11.2585 7.93652 11.6486L9.80859 16.6418L13.0303 3.75797L13.082 3.60465C13.2299 3.26106 13.5609 3.0239 13.9434 3.00211Z" fill="#8B94A3"/>
</svg>
