<svg width="20" height="20" viewBox="0 0 20 20" fill="none" xmlns="http://www.w3.org/2000/svg">
<path d="M10.4922 0.0117188C11.6373 0.0681432 12.7657 0.321072 13.8271 0.760742C15.0404 1.26329 16.1427 2.00015 17.0713 2.92871C17.9998 3.85727 18.7367 4.95964 19.2393 6.17285C19.7418 7.38611 20 8.68678 20 10L19.9883 10.4922C19.9319 11.6373 19.6789 12.7657 19.2393 13.8271C18.7367 15.0404 17.9998 16.1427 17.0713 17.0713C16.1427 17.9998 15.0404 18.7367 13.8271 19.2393C12.7657 19.6789 11.6373 19.9319 10.4922 19.9883L10 20C8.68678 20 7.38611 19.7418 6.17285 19.2393C4.95964 18.7367 3.85727 17.9998 2.92871 17.0713C2.00015 16.1427 1.26329 15.0404 0.760742 13.8271C0.321072 12.7657 0.0681431 11.6373 0.0117188 10.4922L0 10C-1.76118e-08 8.68678 0.258195 7.38611 0.760742 6.17285C1.26329 4.95964 2.00015 3.85727 2.92871 2.92871C3.85727 2.00015 4.95964 1.26329 6.17285 0.760742C7.38611 0.258195 8.68678 0 10 0L10.4922 0.0117188ZM10 2C8.94942 2 7.90908 2.20734 6.93848 2.60938C5.96795 3.01141 5.08559 3.59995 4.34277 4.34277C3.59995 5.08559 3.01141 5.96795 2.60938 6.93848C2.20734 7.90908 2 8.94942 2 10L2.00977 10.3936C2.05489 11.3097 2.25762 12.2123 2.60938 13.0615C3.01141 14.0321 3.59995 14.9144 4.34277 15.6572C5.08559 16.4 5.96795 16.9886 6.93848 17.3906C7.90908 17.7927 8.94942 18 10 18L10.3936 17.9902C11.3097 17.9451 12.2123 17.7424 13.0615 17.3906C14.0321 16.9886 14.9144 16.4 15.6572 15.6572C16.4 14.9144 16.9886 14.0321 17.3906 13.0615C17.7927 12.0909 18 11.0506 18 10L17.9902 9.60645C17.9451 8.69032 17.7424 7.7877 17.3906 6.93848C16.9886 5.96795 16.4 5.08559 15.6572 4.34277C14.9144 3.59995 14.0321 3.01141 13.0615 2.60938C12.2123 2.25762 11.3097 2.05489 10.3936 2.00977L10 2ZM12.293 7.29297C12.6835 6.90244 13.3165 6.90244 13.707 7.29297C14.0976 7.68349 14.0976 8.31651 13.707 8.70703L9.70703 12.707C9.31651 13.0976 8.68349 13.0976 8.29297 12.707L6.29297 10.707C5.90244 10.3165 5.90244 9.68349 6.29297 9.29297C6.68349 8.90244 7.31651 8.90244 7.70703 9.29297L9 10.5859L12.293 7.29297Z" fill="#005496"/>
</svg>
