<svg width="24" height="24" viewBox="0 0 24 24" fill="none" xmlns="http://www.w3.org/2000/svg">
<path d="M14.0986 2.00488C14.3276 2.02757 14.5429 2.12883 14.707 2.29297L19.707 7.29297C19.8946 7.4805 20 7.73478 20 8V19C20 19.7957 19.6837 20.5585 19.1211 21.1211C18.5585 21.6837 17.7957 22 17 22H7C6.20435 22 5.44151 21.6837 4.87891 21.1211C4.3163 20.5585 4 19.7957 4 19V5C4 4.20435 4.3163 3.44152 4.87891 2.87891C5.44152 2.3163 6.20435 2 7 2H14L14.0986 2.00488ZM7 4C6.73478 4 6.4805 4.10543 6.29297 4.29297C6.10543 4.4805 6 4.73478 6 5V19L6.00488 19.0986C6.02757 19.3276 6.12883 19.5429 6.29297 19.707C6.48051 19.8946 6.73478 20 7 20H17C17.2652 20 17.5195 19.8946 17.707 19.707C17.8946 19.5195 18 19.2652 18 19V9H15C14.4696 9 13.961 8.78913 13.5859 8.41406C13.2109 8.03899 13 7.53043 13 7V4H7ZM14.293 12.293C14.6835 11.9024 15.3165 11.9024 15.707 12.293C16.0976 12.6835 16.0976 13.3165 15.707 13.707L11.707 17.707C11.3165 18.0976 10.6835 18.0976 10.293 17.707L8.29297 15.707C7.90244 15.3165 7.90244 14.6835 8.29297 14.293C8.68349 13.9024 9.31651 13.9024 9.70703 14.293L11 15.5859L14.293 12.293ZM15 7H16.5859L15 5.41406V7Z" fill="#6E7684"/>
</svg>
