<svg width="14" height="14" viewBox="0 0 14 14" fill="none" xmlns="http://www.w3.org/2000/svg">
<path d="M6.99512 0.0078125C7.7585 0.0454288 8.51111 0.214699 9.21875 0.507812C10.0274 0.84284 10.7619 1.33419 11.3809 1.95312C11.9998 2.57206 12.4911 3.30658 12.8262 4.11523C13.1612 4.92407 13.334 5.79151 13.334 6.66699L13.3262 6.99512C13.2886 7.7585 13.1193 8.51111 12.8262 9.21875C12.4911 10.0274 11.9998 10.7619 11.3809 11.3809C10.7619 11.9998 10.0274 12.4911 9.21875 12.8262C8.51111 13.1193 7.7585 13.2886 6.99512 13.3262L6.66699 13.334C5.79151 13.334 4.92407 13.1612 4.11523 12.8262C3.30658 12.4911 2.57206 11.9998 1.95312 11.3809C1.33419 10.7619 0.84284 10.0274 0.507812 9.21875C0.214699 8.51111 0.0454287 7.7585 0.0078125 6.99512L0 6.66699C-1.17412e-08 5.79151 0.172781 4.92407 0.507812 4.11523C0.842839 3.30658 1.33419 2.57206 1.95312 1.95312C2.57206 1.33419 3.30658 0.842839 4.11523 0.507812C4.92407 0.172781 5.79151 0 6.66699 0L6.99512 0.0078125ZM9.41016 3.92383C9.15726 3.67101 8.74802 3.67102 8.49512 3.92383L6.66699 5.75098L4.83887 3.92383C4.58597 3.67102 4.17672 3.67102 3.92383 3.92383C3.67094 4.17672 3.67099 4.58594 3.92383 4.83887L5.75098 6.66699L3.92383 8.49512C3.67094 8.74801 3.67098 9.15724 3.92383 9.41016C4.17676 9.6629 4.58601 9.66301 4.83887 9.41016L6.66699 7.58203L8.49512 9.41016C8.74805 9.6629 9.1573 9.66302 9.41016 9.41016C9.66293 9.15729 9.66288 8.74802 9.41016 8.49512L7.58203 6.66699L9.41016 4.83887C9.66293 4.586 9.66287 4.17673 9.41016 3.92383Z" fill="#8B94A3"/>
</svg>
