<svg width="40" height="40" viewBox="0 0 40 40" fill="none" xmlns="http://www.w3.org/2000/svg">
<path d="M0 20C0 8.95431 8.95431 0 20 0C31.0457 0 40 8.95431 40 20C40 31.0457 31.0457 40 20 40C8.95431 40 0 31.0457 0 20Z" fill="#F4F6F9"/>
<path d="M23.5283 15.5281C23.7885 15.2679 24.2103 15.2681 24.4707 15.5281C24.731 15.7885 24.731 16.2111 24.4707 16.4715L20.9423 19.9998L24.4707 23.5281C24.731 23.7885 24.731 24.2111 24.4707 24.4715C24.2103 24.7313 23.7885 24.7315 23.5283 24.4715L19.9999 20.9422L16.4707 24.4715C16.2103 24.7313 15.7885 24.7315 15.5283 24.4715C15.2679 24.2111 15.2679 23.7885 15.5283 23.5281L19.0566 19.9998L15.5283 16.4715C15.2679 16.2111 15.2679 15.7885 15.5283 15.5281C15.7885 15.2679 16.2103 15.2681 16.4707 15.5281L19.9999 19.0574L23.5283 15.5281Z" fill="#16181D"/>
</svg>
