<svg width="24" height="24" viewBox="0 0 24 24" fill="none" xmlns="http://www.w3.org/2000/svg">
<path d="M12 0.5C18.3513 0.5 23.5 5.64873 23.5 12C23.5 18.3513 18.3513 23.5 12 23.5C5.64873 23.5 0.5 18.3513 0.5 12C0.5 5.64873 5.64873 0.5 12 0.5Z" fill="white"/>
<path d="M12 0.5C18.3513 0.5 23.5 5.64873 23.5 12C23.5 18.3513 18.3513 23.5 12 23.5C5.64873 23.5 0.5 18.3513 0.5 12C0.5 5.64873 5.64873 0.5 12 0.5Z" stroke="#E7E7E7"/>
<path d="M16.4721 8.47132C16.7324 8.21098 16.7324 7.78887 16.4721 7.52852C16.2117 7.26816 15.7896 7.26816 15.5292 7.52852L12.0006 11.0571L8.47206 7.52852C8.2117 7.26816 7.78959 7.26816 7.52925 7.52852C7.2689 7.78887 7.2689 8.21098 7.52925 8.47132L11.0578 11.9999L7.52925 15.5285C7.2689 15.7889 7.2689 16.211 7.52925 16.4713C7.78959 16.7317 8.2117 16.7317 8.47206 16.4713L12.0006 12.9427L15.5292 16.4713C15.7896 16.7317 16.2117 16.7317 16.4721 16.4713C16.7324 16.211 16.7324 15.7889 16.4721 15.5285L12.9434 11.9999L16.4721 8.47132Z" fill="#121821"/>
</svg>
