<svg width="32" height="32" viewBox="0 0 32 32" fill="none" xmlns="http://www.w3.org/2000/svg">
<path d="M16 0.5C24.5604 0.5 31.5 7.43959 31.5 16C31.5 24.5604 24.5604 31.5 16 31.5C7.43959 31.5 0.5 24.5604 0.5 16C0.5 7.43959 7.43959 0.5 16 0.5Z" fill="white"/>
<path d="M16 0.5C24.5604 0.5 31.5 7.43959 31.5 16C31.5 24.5604 24.5604 31.5 16 31.5C7.43959 31.5 0.5 24.5604 0.5 16C0.5 7.43959 7.43959 0.5 16 0.5Z" stroke="#E7E7E7"/>
<path fill-rule="evenodd" clip-rule="evenodd" d="M20.412 10.4111C20.7375 10.0856 21.2643 10.0856 21.5898 10.4111C21.9151 10.7365 21.9152 11.2634 21.5898 11.5888L17.1796 15.9999L21.5898 20.4111C21.9151 20.7365 21.9152 21.2634 21.5898 21.5888C21.2644 21.9142 20.7375 21.9141 20.412 21.5888L16.0009 17.1786L11.5898 21.5888C11.2644 21.9142 10.7375 21.9141 10.412 21.5888C10.0866 21.2634 10.0866 20.7365 10.412 20.4111L14.8222 15.9999L10.412 11.5888C10.0866 11.2634 10.0866 10.7365 10.412 10.4111C10.7375 10.0856 11.2643 10.0856 11.5898 10.4111L16.0009 14.8212L20.412 10.4111Z" fill="black"/>
</svg>
