<svg width="24" height="24" viewBox="0 0 24 24" fill="none" xmlns="http://www.w3.org/2000/svg">
<path d="M20 3C20.5523 3 21 3.44772 21 4V6.17188L20.9854 6.46875C20.9268 7.05734 20.6953 7.61577 20.3203 8.07324L20.1211 8.29297L16 12.4141V19C16 19.4303 15.7246 19.812 15.3164 19.9482L9.31641 21.9482C9.01146 22.0499 8.67581 21.9995 8.41504 21.8115C8.15429 21.6236 8 21.3214 8 21V12.8867L3.78027 8.24512V8.24414C3.27861 7.69215 3.00019 6.97343 3 6.22754V4C3 3.44772 3.44772 3 4 3H20ZM5 6.22656L5.00391 6.31934C5.02389 6.53443 5.11338 6.73831 5.25977 6.89941L9.74023 11.8271C9.90754 12.0112 10 12.2513 10 12.5V19.6123L14 18.2793V12C14 11.7348 14.1054 11.4805 14.293 11.293L18.707 6.87891C18.8712 6.71482 18.9724 6.49945 18.9951 6.27051L19 6.17188V5H5V6.22656Z" fill="white" fill-opacity="0.9"/>
</svg>
