<svg width="24" height="24" viewBox="0 0 24 24" fill="none" xmlns="http://www.w3.org/2000/svg">
<path d="M3 2C3.55228 2 4 2.44772 4 3V20H21C21.5523 20 22 20.4477 22 21C22 21.5523 21.5523 22 21 22H3C2.44772 22 2 21.5523 2 21V3C2 2.44772 2.44772 2 3 2ZM13 2C13.7956 2 14.5585 2.3163 15.1211 2.87891C15.264 3.02185 15.391 3.17768 15.501 3.34375L20.7578 2.03027C21.2935 1.89648 21.8358 2.22209 21.9697 2.75781C22.1035 3.29353 21.7779 3.8358 21.2422 3.96973L15.9854 5.2832C15.9351 5.81262 15.7431 6.3159 15.4346 6.74609L17.207 9.10938C17.4634 9.03903 17.7295 9 18 9C18.7957 9 19.5585 9.3163 20.1211 9.87891C20.6837 10.4415 21 11.2043 21 12C21 12.7957 20.6837 13.5585 20.1211 14.1211C19.5585 14.6837 18.7957 15 18 15C17.2043 15 16.4415 14.6837 15.8789 14.1211C15.7637 14.0059 15.6613 13.8806 15.5674 13.75L11.9902 15.1807C11.9462 15.9103 11.6409 16.6013 11.1211 17.1211C10.5585 17.6837 9.79565 18 9 18C8.20435 18 7.44151 17.6837 6.87891 17.1211C6.38671 16.6289 6.08291 15.9835 6.01465 15.2969L6 15C6 14.2044 6.3163 13.4415 6.87891 12.8789C7.44151 12.3163 8.20435 12 9 12C9.79565 12 10.5585 12.3163 11.1211 12.8789C11.236 12.9938 11.3379 13.1189 11.4316 13.249L15.0088 11.8184C15.0432 11.2521 15.2362 10.7106 15.5645 10.2529L13.792 7.88965C13.6302 7.934 13.4653 7.96861 13.2969 7.98535L13 8C12.2044 8 11.4415 7.6837 10.8789 7.12109C10.3163 6.55849 10 5.79565 10 5C10 4.20435 10.3163 3.44151 10.8789 2.87891C11.4415 2.3163 12.2044 2 13 2ZM9 14C8.73478 14 8.48051 14.1054 8.29297 14.293C8.10543 14.4805 8 14.7348 8 15L8.00488 15.0986C8.02757 15.3276 8.12883 15.5429 8.29297 15.707C8.48051 15.8946 8.73478 16 9 16C9.26522 16 9.51949 15.8946 9.70703 15.707C9.89457 15.5195 10 15.2652 10 15C10 14.7348 9.89457 14.4805 9.70703 14.293C9.51949 14.1054 9.26522 14 9 14ZM18 11C17.8175 11 17.6403 11.0503 17.4863 11.1426C17.4854 11.1432 17.4853 11.1448 17.4844 11.1455C17.4569 11.1661 17.4283 11.1848 17.3994 11.2021C17.3623 11.2301 17.3262 11.2597 17.293 11.293C17.1054 11.4805 17 11.7348 17 12L17.0049 12.0986C17.0276 12.3276 17.1288 12.5429 17.293 12.707C17.4805 12.8946 17.7348 13 18 13C18.2652 13 18.5195 12.8946 18.707 12.707C18.8946 12.5195 19 12.2652 19 12C19 11.7348 18.8946 11.4805 18.707 11.293C18.5195 11.1054 18.2652 11 18 11ZM13 4C12.7348 4 12.4805 4.10543 12.293 4.29297C12.1054 4.48051 12 4.73478 12 5C12 5.26522 12.1054 5.51949 12.293 5.70703C12.4805 5.89457 12.7348 6 13 6L13.0986 5.99512C13.2342 5.98168 13.3642 5.93927 13.4824 5.87402C13.4924 5.86589 13.5023 5.85742 13.5127 5.84961C13.5512 5.82072 13.5918 5.79597 13.6328 5.77344C13.6584 5.75249 13.6834 5.73063 13.707 5.70703C13.8946 5.51949 14 5.26522 14 5C14 4.73478 13.8946 4.48051 13.707 4.29297C13.5195 4.10543 13.2652 4 13 4Z" fill="#6E7684"/>
</svg>
