<svg width="40" height="40" viewBox="0 0 40 40" fill="none" xmlns="http://www.w3.org/2000/svg">
<path d="M20 0.5C30.7696 0.5 39.5 9.23045 39.5 20C39.5 30.7696 30.7696 39.5 20 39.5C9.23045 39.5 0.5 30.7696 0.5 20C0.5 9.23045 9.23045 0.5 20 0.5Z" fill="white"/>
<path d="M20 0.5C30.7696 0.5 39.5 9.23045 39.5 20C39.5 30.7696 30.7696 39.5 20 39.5C9.23045 39.5 0.5 30.7696 0.5 20C0.5 9.23045 9.23045 0.5 20 0.5Z" stroke="#E7E7E7"/>
<path fill-rule="evenodd" clip-rule="evenodd" d="M21.666 24.1675C22.1263 24.1675 22.5 24.5403 22.5 25.0005C22.4998 25.4605 22.1261 25.8335 21.666 25.8335H13.333C12.8731 25.8333 12.5002 25.4604 12.5 25.0005C12.5 24.5404 12.8729 24.1677 13.333 24.1675H21.666ZM26.666 19.1675C27.1263 19.1675 27.5 19.5403 27.5 20.0005C27.4998 20.4605 27.1261 20.8335 26.666 20.8335H13.333C12.8731 20.8333 12.5002 20.4604 12.5 20.0005C12.5 19.5404 12.8729 19.1677 13.333 19.1675H26.666ZM26.666 14.1675C27.1263 14.1675 27.5 14.5403 27.5 15.0005C27.4998 15.4605 27.1261 15.8335 26.666 15.8335H18.333C17.8731 15.8333 17.5002 15.4604 17.5 15.0005C17.5 14.5404 17.8729 14.1677 18.333 14.1675H26.666Z" fill="black"/>
</svg>
