<svg width="24" height="24" viewBox="0 0 24 24" fill="none" xmlns="http://www.w3.org/2000/svg">
<path fill-rule="evenodd" clip-rule="evenodd" d="M11.3691 2.22462C11.7619 1.90427 12.3409 1.92686 12.707 2.29298L21.707 11.293C21.9929 11.579 22.0785 12.0092 21.9238 12.3828C21.7689 12.7563 21.4043 13 20.9999 13H19.9999V19C19.9999 19.7956 19.6836 20.5585 19.121 21.1211C18.5585 21.6836 17.7955 22 16.9999 22H6.99995C6.20437 22 5.44145 21.6836 4.87885 21.1211C4.3163 20.5585 4.00001 19.7956 3.99995 19V13H2.99995C2.59561 13 2.23098 12.7563 2.07612 12.3828C1.92136 12.0092 2.00699 11.579 2.29292 11.293L11.2929 2.29298L11.3691 2.22462ZM5.34956 11.0635C5.72925 11.2053 5.99995 11.5708 5.99995 12V19L6.00483 19.0986C6.02757 19.3276 6.12883 19.543 6.29292 19.707C6.48044 19.8945 6.7348 20 6.99995 20H7.99995V15C7.99995 14.2044 8.3163 13.4415 8.87886 12.8789C9.44146 12.3163 10.2043 12 10.9999 12H12.9999C13.7956 12 14.5584 12.3163 15.121 12.8789C15.6836 13.4415 15.9999 14.2044 15.9999 15V20H16.9999C17.2651 20 17.5195 19.8945 17.707 19.707C17.8945 19.5196 17.9999 19.2651 17.9999 19V12C17.9999 11.5711 18.2701 11.2056 18.6494 11.0635L11.9999 4.41407L5.34956 11.0635ZM10.9999 14C10.7347 14 10.4805 14.1054 10.2929 14.293C10.1054 14.4805 9.99995 14.7348 9.99995 15V20H13.9999V15C13.9999 14.7349 13.8944 14.4805 13.707 14.293C13.5195 14.1055 13.2651 14 12.9999 14H10.9999Z" fill="#005496"/>
</svg>
