<svg width="16" height="16" viewBox="0 0 16 16" fill="none" xmlns="http://www.w3.org/2000/svg">
<g clip-path="url(#clip0_91_13273)">
<path d="M7.66634 14.0002H4.66634C4.31272 14.0002 3.97358 13.8597 3.72353 13.6096C3.47348 13.3596 3.33301 13.0205 3.33301 12.6668V8.66683C3.33301 8.31321 3.47348 7.97407 3.72353 7.72402C3.97358 7.47397 4.31272 7.3335 4.66634 7.3335H11.333C11.6866 7.3335 12.0258 7.47397 12.2758 7.72402C12.5259 7.97407 12.6663 8.31321 12.6663 8.66683V9.00016" stroke="#C62828" stroke-width="1.33333" stroke-linecap="round" stroke-linejoin="round"/>
<path d="M7.33301 10.6667C7.33301 10.8435 7.40325 11.013 7.52827 11.1381C7.65329 11.2631 7.82286 11.3333 7.99967 11.3333C8.17649 11.3333 8.34605 11.2631 8.47108 11.1381C8.5961 11.013 8.66634 10.8435 8.66634 10.6667C8.66634 10.4899 8.5961 10.3203 8.47108 10.1953C8.34605 10.0702 8.17649 10 7.99967 10C7.82286 10 7.65329 10.0702 7.52827 10.1953C7.40325 10.3203 7.33301 10.4899 7.33301 10.6667Z" stroke="#C62828" stroke-width="1.33333" stroke-linecap="round" stroke-linejoin="round"/>
<path d="M5.33301 7.33333V4.66667C5.33301 3.95942 5.61396 3.28115 6.11406 2.78105C6.61415 2.28095 7.29243 2 7.99967 2C8.70692 2 9.3852 2.28095 9.88529 2.78105C10.3854 3.28115 10.6663 3.95942 10.6663 4.66667V7.33333" stroke="#C62828" stroke-width="1.33333" stroke-linecap="round" stroke-linejoin="round"/>
<path d="M10 12.6668L11.3333 14.0002L14 11.3335" stroke="#C62828" stroke-width="1.33333" stroke-linecap="round" stroke-linejoin="round"/>
</g>
<defs>
<clipPath id="clip0_91_13273">
<rect width="16" height="16" fill="white"/>
</clipPath>
</defs>
</svg>
