<svg width="110" height="114" viewBox="0 0 110 114" fill="none" xmlns="http://www.w3.org/2000/svg">
<g clip-path="url(#clip0_91_7193)">
<path d="M110 55.1613C110 24.6966 85.3757 0 55 0C24.6243 0 0 24.6966 0 55.1613C0 85.626 24.6243 110.323 55 110.323C85.3757 110.323 110 85.626 110 55.1613Z" fill="#E7E7E7"/>
<path d="M76.29 21.9453H33.1179C30.5049 21.9453 28.3867 24.0697 28.3867 26.6904V83.0379C28.3867 85.6585 30.5049 87.783 33.1179 87.783H76.29C78.9029 87.783 81.0211 85.6585 81.0211 83.0379V26.6904C81.0211 24.0697 78.9029 21.9453 76.29 21.9453Z" fill="white"/>
<path d="M56.1833 32.0281H37.85C36.5435 32.0281 35.4844 33.0903 35.4844 34.4006C35.4844 35.7109 36.5435 36.7731 37.85 36.7731H56.1833C57.4898 36.7731 58.5489 35.7109 58.5489 34.4006C58.5489 33.0903 57.4898 32.0281 56.1833 32.0281Z" fill="#E4E4E4"/>
<path d="M71.5597 45.0771H37.85C36.5435 45.0771 35.4844 46.1394 35.4844 47.4497C35.4844 48.76 36.5435 49.8222 37.85 49.8222H71.5597C72.8662 49.8222 73.9253 48.76 73.9253 47.4497C73.9253 46.1394 72.8662 45.0771 71.5597 45.0771Z" fill="#E4E4E4"/>
<path d="M71.5597 58.1262H37.85C36.5435 58.1262 35.4844 59.1884 35.4844 60.4987C35.4844 61.8091 36.5435 62.8713 37.85 62.8713H71.5597C72.8662 62.8713 73.9253 61.8091 73.9253 60.4987C73.9253 59.1884 72.8662 58.1262 71.5597 58.1262Z" fill="#E4E4E4"/>
<path d="M71.5597 71.1753H37.85C36.5435 71.1753 35.4844 72.2375 35.4844 73.5478C35.4844 74.8581 36.5435 75.9204 37.85 75.9204H71.5597C72.8662 75.9204 73.9253 74.8581 73.9253 73.5478C73.9253 72.2375 72.8662 71.1753 71.5597 71.1753Z" fill="#E4E4E4"/>
<path fill-rule="evenodd" clip-rule="evenodd" d="M53.4889 79.7241C53.4889 68.2691 62.748 58.9829 74.1696 58.9829C85.5913 58.9829 94.8503 68.2691 94.8503 79.7241C94.8503 91.1793 85.5913 100.466 74.1696 100.466C62.748 100.466 53.4889 91.1793 53.4889 79.7241ZM74.1696 52.1948C59.01 52.1948 46.7207 64.5201 46.7207 79.7241C46.7207 94.9281 59.01 107.253 74.1696 107.253C80.5298 107.253 86.3847 105.084 91.0385 101.443L101.857 112.294C103.179 113.619 105.322 113.619 106.643 112.294C107.965 110.968 107.965 108.819 106.643 107.494L95.8249 96.6432C99.4557 91.9751 101.618 86.103 101.618 79.7241C101.618 64.5201 89.3291 52.1948 74.1696 52.1948Z" fill="#A4A4A4"/>
<path fill-rule="evenodd" clip-rule="evenodd" d="M83.7045 71.4507C84.8588 72.6088 84.8588 74.4869 83.7045 75.6445L70.6934 88.6935C69.5386 89.8519 67.6664 89.8519 66.5116 88.6935C65.3568 87.5358 65.3568 85.6574 66.5116 84.4998L79.5223 71.4507C80.6773 70.2925 82.5495 70.2925 83.7045 71.4507Z" fill="#A4A4A4"/>
<path fill-rule="evenodd" clip-rule="evenodd" d="M66.5116 71.4507C67.6664 70.2925 69.5386 70.2925 70.6934 71.4507L83.7045 84.4998C84.8588 85.6574 84.8588 87.5358 83.7045 88.6935C82.5495 89.8519 80.6773 89.8519 79.5223 88.6935L66.5116 75.6445C65.3568 74.4869 65.3568 72.6088 66.5116 71.4507Z" fill="#A4A4A4"/>
</g>
<defs>
<clipPath id="clip0_91_7193">
<rect width="110" height="114" fill="white"/>
</clipPath>
</defs>
</svg>
