<svg width="24" height="24" viewBox="0 0 24 24" fill="none" xmlns="http://www.w3.org/2000/svg">
<path d="M17 2C17.7956 2 18.5585 2.3163 19.1211 2.87891C19.6837 3.44151 20 4.20435 20 5V19C20 19.7957 19.6837 20.5585 19.1211 21.1211C18.5585 21.6837 17.7957 22 17 22H7C6.20435 22 5.44151 21.6837 4.87891 21.1211C4.3163 20.5585 4 19.7957 4 19V5C4 4.20435 4.3163 3.44152 4.87891 2.87891C5.44152 2.3163 6.20435 2 7 2H17ZM7 4C6.73478 4 6.4805 4.10543 6.29297 4.29297C6.10543 4.4805 6 4.73478 6 5V19L6.00488 19.0986C6.02757 19.3276 6.12883 19.5429 6.29297 19.707C6.48051 19.8946 6.73478 20 7 20H17C17.2652 20 17.5195 19.8946 17.707 19.707C17.8946 19.5195 18 19.2652 18 19V5C18 4.73478 17.8946 4.48051 17.707 4.29297C17.5195 4.10543 17.2652 4 17 4H7ZM13 14C13.5523 14 14 14.4477 14 15C14 15.5523 13.5523 16 13 16H9C8.44772 16 8 15.5523 8 15C8 14.4477 8.44772 14 9 14H13ZM15 10C15.5523 10 16 10.4477 16 11C16 11.5523 15.5523 12 15 12H9C8.44772 12 8 11.5523 8 11C8 10.4477 8.44772 10 9 10H15ZM15 6C15.5523 6 16 6.44772 16 7C16 7.55228 15.5523 8 15 8H9C8.44772 8 8 7.55228 8 7C8 6.44772 8.44772 6 9 6H15Z" fill="#16181D"/>
</svg>
