<svg width="24" height="24" viewBox="0 0 24 24" fill="none" xmlns="http://www.w3.org/2000/svg">
<path d="M18 3C18.7956 3 19.5585 3.3163 20.1211 3.87891C20.6837 4.44151 21 5.20435 21 6V13C21 13.2652 20.8946 13.5195 20.707 13.707L13.707 20.707C13.5195 20.8946 13.2652 21 13 21H6C5.20435 21 4.44151 20.6837 3.87891 20.1211C3.3163 19.5585 3 18.7956 3 18V6C3 5.20435 3.3163 4.44152 3.87891 3.87891C4.44152 3.3163 5.20435 3 6 3H18ZM6 5C5.73478 5 5.4805 5.10543 5.29297 5.29297C5.10543 5.4805 5 5.73478 5 6V18L5.00488 18.0986C5.02757 18.3276 5.12883 18.5429 5.29297 18.707C5.48051 18.8946 5.73478 19 6 19H12V14C12 13.4696 12.2109 12.961 12.5859 12.5859C12.961 12.2109 13.4696 12 14 12H19V6C19 5.73478 18.8946 5.48051 18.707 5.29297C18.5429 5.12883 18.3276 5.02757 18.0986 5.00488L18 5H6ZM14 17.5859L17.5859 14H14V17.5859Z" fill="#6E7684"/>
</svg>
