<svg width="24" height="24" viewBox="0 0 24 24" fill="none" xmlns="http://www.w3.org/2000/svg">
<path d="M15 2C15.7956 2 16.5585 2.3163 17.1211 2.87891C17.6837 3.44151 18 4.20435 18 5V8H19C19.7957 8 20.5585 8.3163 21.1211 8.87891C21.6837 9.44151 22 10.2043 22 11V15C22 15.7957 21.6837 16.5585 21.1211 17.1211C20.5585 17.6837 19.7957 18 19 18H18V19C18 19.7957 17.6837 20.5585 17.1211 21.1211C16.5585 21.6837 15.7957 22 15 22H9C8.20435 22 7.44151 21.6837 6.87891 21.1211C6.3163 20.5585 6 19.7957 6 19V18H5C4.20435 18 3.44151 17.6837 2.87891 17.1211C2.3163 16.5585 2 15.7956 2 15V11C2 10.2044 2.3163 9.44152 2.87891 8.87891C3.44151 8.3163 4.20435 8 5 8H6V5C6 4.20435 6.3163 3.44152 6.87891 2.87891C7.44152 2.3163 8.20435 2 9 2H15ZM9 14C8.73478 14 8.48051 14.1054 8.29297 14.293C8.10543 14.4805 8 14.7348 8 15V19L8.00488 19.0986C8.02757 19.3276 8.12883 19.5429 8.29297 19.707C8.48051 19.8946 8.73478 20 9 20H15C15.2652 20 15.5195 19.8946 15.707 19.707C15.8946 19.5195 16 19.2652 16 19V15C16 14.7348 15.8946 14.4805 15.707 14.293C15.5195 14.1054 15.2652 14 15 14H9ZM5 10C4.73478 10 4.48051 10.1054 4.29297 10.293C4.10543 10.4805 4 10.7348 4 11V15C4 15.2652 4.10543 15.5195 4.29297 15.707C4.48051 15.8946 4.73478 16 5 16H6V15C6 14.2044 6.3163 13.4415 6.87891 12.8789C7.44151 12.3163 8.20435 12 9 12H15C15.7957 12 16.5585 12.3163 17.1211 12.8789C17.6837 13.4415 18 14.2043 18 15V16H19C19.2652 16 19.5195 15.8946 19.707 15.707C19.8946 15.5195 20 15.2652 20 15V11C20 10.7348 19.8946 10.4805 19.707 10.293C19.5195 10.1054 19.2652 10 19 10H5ZM9 4C8.73478 4 8.4805 4.10543 8.29297 4.29297C8.10543 4.4805 8 4.73478 8 5V8H16V5C16 4.73478 15.8946 4.48051 15.707 4.29297C15.5195 4.10543 15.2652 4 15 4H9Z" fill="#16181D"/>
</svg>
