<svg width="16" height="16" viewBox="0 0 16 16" fill="none" xmlns="http://www.w3.org/2000/svg">
<g clip-path="url(#clip0_91_9769)">
<path d="M13.3337 7.33346C13.1706 6.16028 12.6264 5.07324 11.7848 4.23979C10.9431 3.40635 9.85083 2.87274 8.67611 2.72116C7.50138 2.56959 6.30941 2.80845 5.28379 3.40096C4.25818 3.99347 3.45582 4.90675 3.00033 6.00013M2.66699 3.33346V6.00013H5.33366" stroke="#005496" stroke-width="1.33333" stroke-linecap="round" stroke-linejoin="round"/>
<path d="M2.66699 8.6665C2.83003 9.83969 3.37428 10.9267 4.2159 11.7602C5.05752 12.5936 6.14982 13.1272 7.32455 13.2788C8.49927 13.4304 9.69124 13.1915 10.7169 12.599C11.7425 12.0065 12.5448 11.0932 13.0003 9.99984M13.3337 12.6665V9.99984H10.667" stroke="#005496" stroke-width="1.33333" stroke-linecap="round" stroke-linejoin="round"/>
</g>
<defs>
<clipPath id="clip0_91_9769">
<rect width="16" height="16" fill="white"/>
</clipPath>
</defs>
</svg>
