<svg width="24" height="24" viewBox="0 0 24 24" fill="none" xmlns="http://www.w3.org/2000/svg">
<path d="M4 16C4.55228 16 5 16.4477 5 17V18L5.00488 18.0986C5.02757 18.3276 5.12883 18.5429 5.29297 18.707C5.48051 18.8946 5.73478 19 6 19H8C8.55228 19 9 19.4477 9 20C9 20.5523 8.55228 21 8 21H6C5.20435 21 4.44151 20.6837 3.87891 20.1211C3.3163 19.5585 3 18.7956 3 18V17C3 16.4477 3.44772 16 4 16ZM20 16C20.5523 16 21 16.4477 21 17V18C21 18.7957 20.6837 19.5585 20.1211 20.1211C19.5585 20.6837 18.7957 21 18 21H16C15.4477 21 15 20.5523 15 20C15 19.4477 15.4477 19 16 19H18C18.2652 19 18.5195 18.8946 18.707 18.707C18.8946 18.5195 19 18.2652 19 18V17C19 16.4477 19.4477 16 20 16ZM19 11C19.5523 11 20 11.4477 20 12C20 12.5523 19.5523 13 19 13H5C4.44772 13 4 12.5523 4 12C4 11.4477 4.44772 11 5 11H19ZM8 3C8.55228 3 9 3.44772 9 4C9 4.55228 8.55228 5 8 5H6C5.73478 5 5.4805 5.10543 5.29297 5.29297C5.10543 5.4805 5 5.73478 5 6V7C5 7.55228 4.55228 8 4 8C3.44772 8 3 7.55228 3 7V6C3 5.20435 3.3163 4.44152 3.87891 3.87891C4.44152 3.3163 5.20435 3 6 3H8ZM18 3C18.7956 3 19.5585 3.3163 20.1211 3.87891C20.6837 4.44151 21 5.20435 21 6V7C21 7.55228 20.5523 8 20 8C19.4477 8 19 7.55228 19 7V6C19 5.73478 18.8946 5.48051 18.707 5.29297C18.5429 5.12883 18.3276 5.02757 18.0986 5.00488L18 5H16C15.4477 5 15 4.55228 15 4C15 3.44772 15.4477 3 16 3H18Z" fill="black"/>
</svg>
