<svg width="17" height="17" viewBox="0 0 17 17" fill="none" xmlns="http://www.w3.org/2000/svg">
<path d="M7.5 0C11.642 0.000176028 15 3.35797 15 7.5C14.9999 9.2706 14.3846 10.8967 13.3584 12.1797L16.4219 15.2441C16.7473 15.5696 16.7473 16.0964 16.4219 16.4219C16.0964 16.7473 15.5696 16.7473 15.2441 16.4219L12.1797 13.3584C10.8967 14.3846 9.2706 14.9999 7.5 15C3.35797 15 0.000176032 11.642 0 7.5C0 3.35786 3.35786 0 7.5 0ZM7.5 1.66602C4.27834 1.66602 1.66602 4.27834 1.66602 7.5C1.66619 10.7215 4.27845 13.333 7.5 13.333C9.07737 13.3329 10.5077 12.7058 11.5576 11.6885C11.5767 11.6646 11.597 11.6413 11.6191 11.6191C11.6413 11.597 11.6646 11.5767 11.6885 11.5576C12.7058 10.5077 13.3329 9.07737 13.333 7.5C13.333 4.27845 10.7215 1.66619 7.5 1.66602Z" fill="#8B94A3"/>
</svg>
