<svg width="24" height="24" viewBox="0 0 24 24" fill="none" xmlns="http://www.w3.org/2000/svg">
<path fill-rule="evenodd" clip-rule="evenodd" d="M9.42572 3.82906C10.27 1.30902 13.9941 1.39304 14.6464 4.08101C14.6733 4.19177 14.7266 4.29521 14.8007 4.3818C14.8748 4.46825 14.968 4.53645 15.0732 4.58004C15.1784 4.6236 15.2927 4.64154 15.4062 4.63277C15.5198 4.62394 15.6302 4.58858 15.7275 4.52926L15.957 4.4023C18.336 3.21767 20.9102 5.91042 19.4716 8.2734C19.4125 8.37055 19.3769 8.48033 19.3681 8.59371C19.3593 8.70727 19.3782 8.82148 19.4218 8.92672C19.4653 9.03176 19.5328 9.12516 19.6191 9.19918C19.7055 9.27318 19.8083 9.32655 19.9189 9.35348L20.1708 9.42574C22.6907 10.2701 22.6067 13.9941 19.9189 14.6464C19.8081 14.6733 19.7047 14.7266 19.6181 14.8007C19.5316 14.8748 19.4635 14.968 19.4199 15.0732C19.3763 15.1784 19.3584 15.2926 19.3671 15.4062C19.3737 15.4915 19.3951 15.575 19.4306 15.6523L19.4706 15.7275C20.9559 18.1657 18.1656 20.9564 15.7265 19.4716C15.6294 19.4126 15.5195 19.3769 15.4062 19.3681C15.2927 19.3593 15.1784 19.3783 15.0732 19.4218C14.9681 19.4654 14.8748 19.5328 14.8007 19.6191C14.7452 19.684 14.7014 19.7582 14.6718 19.8379L14.6464 19.9189C13.9731 22.6935 10.0269 22.6935 9.35345 19.9189C9.32662 19.8082 9.27323 19.7047 9.19915 19.6181C9.12511 19.5317 9.03184 19.4635 8.92669 19.4199C8.82149 19.3763 8.70722 19.3584 8.59369 19.3671C8.50846 19.3738 8.4249 19.3952 8.34759 19.4306L8.2724 19.4707C5.83417 20.956 3.04328 18.1657 4.52826 15.7265L4.56829 15.6513C4.60354 15.5742 4.62517 15.4912 4.63177 15.4062C4.64056 15.2927 4.62162 15.1784 4.57806 15.0732C4.53455 14.9682 4.46707 14.8748 4.38079 14.8007C4.31597 14.7452 4.24162 14.7015 4.16204 14.6718L4.08099 14.6464C1.30634 13.9731 1.30634 10.0268 4.08099 9.35348C4.19173 9.32662 4.2952 9.27327 4.38177 9.19918C4.46824 9.12511 4.53642 9.0319 4.58001 8.92672C4.6236 8.8215 4.64151 8.70726 4.63275 8.59371C4.62614 8.50848 4.6047 8.42492 4.56927 8.34762L4.52923 8.27242C3.04413 5.83465 5.83258 3.04416 8.27142 4.5273H8.2724C8.69431 4.78373 9.23726 4.55803 9.35345 4.08101L9.42572 3.82906ZM12.7031 4.55269C12.5242 3.81573 11.4756 3.81573 11.2968 4.55269V4.55367C10.8743 6.29006 8.93784 7.14169 7.38275 6.32125L7.23333 6.23629C6.58452 5.84128 5.84272 6.58365 6.23724 7.23141H6.23626C6.45942 7.59744 6.59368 8.01103 6.62689 8.43844C6.66003 8.86601 6.59181 9.29614 6.42767 9.69234C6.26359 10.0883 6.00813 10.44 5.68255 10.7187C5.39737 10.9628 5.06485 11.1455 4.70697 11.2548L4.55267 11.2968C3.81571 11.4757 3.81571 12.5243 4.55267 12.7031H4.55365C4.96979 12.8044 5.35629 13.0026 5.68158 13.2812C6.00694 13.56 6.26274 13.9117 6.42669 14.3076C6.59063 14.7035 6.65899 15.1332 6.62591 15.5605C6.59282 15.9877 6.45918 16.4016 6.23626 16.7675C5.84171 17.4163 6.58373 18.1571 7.23138 17.7627C7.59736 17.5396 8.01109 17.4062 8.43841 17.373C8.86596 17.3399 9.29614 17.4081 9.69232 17.5722C10.0883 17.7363 10.4399 17.9918 10.7187 18.3173C10.9975 18.6431 11.1958 19.0305 11.2968 19.4472L11.3398 19.5771C11.6031 20.1814 12.5354 20.138 12.7031 19.4472V19.4462C12.8043 19.0301 13.0026 18.6436 13.2812 18.3183C13.56 17.9929 13.9117 17.7372 14.3076 17.5732C14.7035 17.4093 15.1332 17.3409 15.5605 17.374C15.9877 17.4071 16.4016 17.5407 16.7675 17.7636C17.4162 18.158 18.1569 17.4161 17.7626 16.7685V16.7675C17.5398 16.4017 17.4062 15.9885 17.373 15.5615C17.3398 15.1339 17.408 14.7038 17.5722 14.3076C17.7363 13.9116 17.9917 13.56 18.3173 13.2812C18.6431 13.0024 19.0305 12.8041 19.4472 12.7031L19.5771 12.6601C20.1813 12.3968 20.1379 11.4645 19.4472 11.2968H19.4462C19.0301 11.1956 18.6436 10.9973 18.3183 10.7187C17.9929 10.4399 17.7371 10.0882 17.5732 9.69234C17.4092 9.29638 17.3409 8.86671 17.374 8.43941C17.407 8.01215 17.5407 7.59838 17.7636 7.23238C18.1581 6.58368 17.4161 5.84292 16.7685 6.23726L16.7675 6.23629C16.4016 6.45927 15.9887 6.5937 15.5615 6.62691C15.1339 6.66006 14.7037 6.59181 14.3076 6.42769C13.9116 6.26362 13.5599 6.00814 13.2812 5.68258C13.0371 5.39739 12.8544 5.06489 12.7451 4.70699L12.7031 4.55269ZM11.9999 7.99996C13.0608 7.99999 14.0779 8.42172 14.8281 9.17183C15.5782 9.92197 15.9999 10.9391 15.9999 12C15.9999 13.0608 15.5782 14.078 14.8281 14.8281C14.0779 15.5782 13.0608 15.9999 11.9999 16C10.9391 16 9.92195 15.5782 9.17181 14.8281C8.42167 14.0779 7.99995 13.0608 7.99994 12C7.99994 10.9391 8.42166 9.92198 9.17181 9.17183C9.92195 8.42172 10.9391 7.99996 11.9999 7.99996ZM11.9999 9.99996C11.4695 9.99996 10.9609 10.2109 10.5859 10.5859C10.2108 10.961 9.99994 11.4695 9.99994 12C9.99995 12.5304 10.2108 13.039 10.5859 13.414C10.9609 13.789 11.4695 14 11.9999 14C12.5303 13.9999 13.039 13.7891 13.414 13.414C13.789 13.039 13.9999 12.5304 13.9999 12C13.9999 11.4696 13.789 10.961 13.414 10.5859C13.039 10.2109 12.5303 9.99999 11.9999 9.99996Z" fill="#8B94A3"/>
</svg>
