<svg width="211" height="211" viewBox="0 0 211 211" fill="none" xmlns="http://www.w3.org/2000/svg">
<g clip-path="url(#clip0_91_6310)">
<path d="M108.287 94.0904H102.712L93.0859 0H117.909L108.287 94.0904Z" fill="url(#paint0_linear_91_6310)"/>
<path d="M102.712 116.91H108.287L117.909 211H93.0859L102.712 116.91Z" fill="url(#paint1_linear_91_6310)"/>
<path d="M116.91 108.288V102.713L211.001 93.0864V117.91L116.91 108.288Z" fill="url(#paint2_linear_91_6310)"/>
<path d="M94.0904 102.713V108.288L0 117.91V93.0864L94.0904 102.713Z" fill="url(#paint3_linear_91_6310)"/>
<path d="M115.539 99.4015L111.596 95.4583L171.323 22.1226L188.875 39.6785L115.539 99.4015Z" fill="url(#paint4_linear_91_6310)"/>
<path d="M95.4588 111.595L99.402 115.538L39.679 188.874L22.123 171.322L95.4588 111.595Z" fill="url(#paint5_linear_91_6310)"/>
<path d="M111.596 115.538L115.539 111.595L188.875 171.322L171.323 188.874L111.596 115.538Z" fill="url(#paint6_linear_91_6310)"/>
<path d="M99.402 95.4583L95.4588 99.4015L22.123 39.6785L39.679 22.1226L99.402 95.4583Z" fill="url(#paint7_linear_91_6310)"/>
<ellipse cx="106.15" cy="104.417" rx="48.9589" ry="48.9589" fill="white" fill-opacity="0.48"/>
<circle cx="106.15" cy="104.417" r="33.7947" fill="white" fill-opacity="0.48"/>
<ellipse cx="106.045" cy="104.314" rx="19.0449" ry="19.0449" fill="#E0A800"/>
<path d="M106.045 78.769C120.153 78.7691 131.59 90.2059 131.59 104.314C131.59 118.422 120.153 129.859 106.045 129.859C91.9369 129.859 80.5 118.422 80.5 104.314C80.5 90.2059 91.9369 78.769 106.045 78.769Z" stroke="white" stroke-opacity="0.48" stroke-width="13"/>
<path d="M97.5157 105.071C98.8639 105.994 99.569 106.161 100.731 108.095C101.893 110.029 102.096 111.344 102.402 111.586C102.708 111.827 104.236 111.527 105.032 111.103C105.827 110.679 105.856 110.446 106.599 108.732C107.629 106.354 109.3 103.434 110.584 101.743C111.869 100.051 114.573 97.8245 114.694 97.4025C114.817 96.9789 113.532 96.7824 112.308 97.1462C111.084 97.5099 108.509 100.306 106.953 102.51C105.224 104.958 104.611 107.024 104.305 106.964C103.999 106.904 103.401 105.672 102.545 104.765C101.689 103.858 100.787 103.244 99.7476 103.425C98.7086 103.606 96.8929 104.646 97.5157 105.071Z" fill="white"/>
<path d="M66.5716 17.4608C65.5457 16.4393 64.758 15.5606 64.7147 14.0457C64.6757 12.7342 65.009 11.44 65.0306 10.1285C65.0436 9.29311 63.7451 9.29311 63.7321 10.1285C63.7018 11.8252 63.1478 13.5869 63.5503 15.2663C63.8577 16.5605 64.7406 17.4651 65.6539 18.3784C66.2469 18.9714 67.1645 18.0538 66.5716 17.4608Z" fill="#E0A800"/>
<path d="M70.3894 40.2583C70.2163 40.6998 69.593 41.0548 69.2208 41.3058C68.7576 41.6174 68.2772 41.8901 67.801 42.1801C67.0869 42.613 67.7404 43.7384 68.4546 43.3012C69.58 42.6173 71.1339 41.9118 71.6403 40.6046C71.9433 39.8212 70.6924 39.4836 70.3894 40.2583Z" fill="#E0A800"/>
<path d="M45.6225 34.6316C45.1334 35.2506 44.7784 36.0383 45.1853 36.7958C45.6225 37.6139 46.2761 37.51 46.9989 37.5619C46.9296 38.2328 46.4319 38.9427 46.3626 39.5919C46.2934 40.2325 46.4578 40.7087 46.8993 41.1761C47.475 41.7864 48.3926 40.8645 47.817 40.2585C47.3322 39.7434 48.0031 38.7263 48.1546 38.2025C48.2974 37.7221 48.3407 37.3109 48.2411 36.8218C48.1979 36.614 47.9944 36.4106 47.7867 36.3673C47.198 36.2418 46.1202 36.5101 46.5531 35.5579C46.7998 35.0082 48.0377 33.9824 48.6307 34.5407C49.2367 35.1164 50.1586 34.1988 49.5483 33.6231C48.2282 32.3765 46.5661 33.4327 45.6225 34.6316Z" fill="#E0A800"/>
<path d="M148.477 18.7509C148.568 18.7812 148.663 18.8072 148.754 18.8375C148.888 18.8808 149.026 18.8678 149.152 18.8158C149.182 18.8332 149.208 18.8461 149.217 18.8505C149.282 18.8937 149.29 18.9024 149.243 18.8678C149.273 18.8981 149.303 18.924 149.334 18.9587C149.576 19.2097 150.005 19.2054 150.251 18.9587C150.502 18.7076 150.498 18.2921 150.251 18.0411C149.81 17.5866 149.104 17.2922 148.477 17.5C147.871 17.6991 147.853 18.5561 148.477 18.7509Z" fill="#E0A800"/>
<path d="M150.446 35.7875C149.641 36.0948 148.455 36.6878 147.404 36.8739C148.217 36.0298 149.438 35.1988 150.252 34.9954C151.061 34.7919 150.719 33.541 149.905 33.7445C148.867 34.0042 148.139 34.714 147.304 35.3416C146.581 35.8827 145.967 36.3458 145.56 37.1725C145.378 37.5361 145.521 38.0166 145.949 38.1248C146.992 38.3931 148.144 38.0685 149.226 37.6573C148.854 38.0469 148.447 38.4278 148.256 38.7567C147.832 39.5012 147.373 40.4145 147.408 41.2932C147.442 42.1242 148.741 42.1285 148.706 41.2932C148.624 39.2025 151.299 38.3282 151.264 36.4107C151.26 36.0255 150.853 35.6316 150.446 35.7875Z" fill="#E0A800"/>
<path d="M160.256 60.0522V56.8795C160.256 56.0441 158.957 56.0441 158.957 56.8795V60.0522C158.957 60.8875 160.256 60.8875 160.256 60.0522Z" fill="#E0A800"/>
<path d="M164.51 70.6566C164.107 70.6696 163.73 70.8168 163.475 71.1371C163.254 71.4098 163.211 71.7907 163.475 72.0547C163.705 72.2841 164.172 72.3274 164.393 72.0547C164.419 72.0201 164.445 71.9898 164.475 71.9638C164.475 71.9638 164.475 71.9638 164.479 71.9638C164.484 71.9638 164.484 71.9638 164.488 71.9595C164.497 71.9595 164.501 71.9595 164.514 71.9595C164.852 71.9508 165.18 71.6695 165.163 71.3102C165.146 70.9639 164.873 70.6436 164.51 70.6566Z" fill="#E0A800"/>
<path d="M43.514 80.2356C43.3798 79.9412 43.1504 79.6945 42.7911 79.53C42.4232 79.3612 42.0423 79.3482 41.6528 79.2746C41.142 79.1751 40.6659 79.0366 40.1422 79.0236C39.3068 79.0063 39.3068 80.3048 40.1422 80.3221C40.6616 80.3351 41.1593 80.5082 41.6744 80.5861C42.025 80.6381 42.4535 80.6208 42.3843 81.0796C42.302 81.6336 43.0119 82.2829 43.4707 81.7115C43.6135 81.5297 43.752 81.3479 43.8776 81.1532C44.1373 80.7463 43.8689 80.3567 43.514 80.2356Z" fill="#E0A800"/>
<path d="M66.2295 65.0732L65.6538 65.6489C65.4071 65.8956 65.4071 66.3198 65.6538 66.5665C65.9005 66.8132 66.3247 66.8132 66.5714 66.5665C66.7619 66.3761 66.9566 66.1813 67.1471 65.9908C67.3938 65.7441 67.3938 65.3199 67.1471 65.0732C66.9004 64.8265 66.4805 64.8265 66.2295 65.0732Z" fill="#E0A800"/>
<path d="M181.651 16.1406C180.24 16.6686 178.604 17.5603 178.136 19.1228C177.682 20.6464 179.27 21.4428 180.495 21.7199C181.309 21.906 181.655 20.6551 180.841 20.469C180.461 20.3824 180.045 20.2915 179.716 20.0664C179.227 19.7331 179.361 19.4128 179.668 18.967C180.218 18.1706 181.114 17.7248 181.993 17.3915C182.772 17.1015 182.434 15.8462 181.651 16.1406Z" fill="#E0A800"/>
<path d="M185.035 31.7878C184.75 31.619 184.304 31.7055 184.148 32.0215C184.053 32.212 183.958 32.4067 183.858 32.5972C183.702 32.9088 183.776 33.2984 184.092 33.4845C184.378 33.6533 184.823 33.5667 184.979 33.2508C185.074 33.0603 185.17 32.8655 185.269 32.6751C185.429 32.3634 185.356 31.9739 185.035 31.7878Z" fill="#E0A800"/>
<path d="M179.517 70.6567C178.682 70.6567 178.682 71.9553 179.517 71.9553C180.353 71.9553 180.353 70.6567 179.517 70.6567Z" fill="#E0A800"/>
<path d="M173.118 97.679C173.023 98.22 172.992 98.7697 172.915 99.3151C172.85 99.7869 172.802 100.518 172.417 100.856C171.789 101.414 172.711 102.328 173.334 101.774C174.317 100.899 174.157 99.2025 174.369 98.0252C174.516 97.2072 173.265 96.8566 173.118 97.679Z" fill="#E0A800"/>
<path d="M148.01 91.087C148.014 91.0916 148.023 91.0916 148.032 91.0961C148.028 91.0916 148.023 91.087 148.019 91.0825C148.014 91.0825 148.014 91.0825 148.01 91.087C148.01 91.087 148.01 91.0825 148.01 91.087Z" fill="#E0A800"/>
<path d="M146.565 91.316C146.366 91.2597 146.167 91.1861 145.968 91.1429C145.929 91.1342 145.898 91.1169 145.868 91.0952C145.968 91.1948 145.565 91.1905 145.846 91.0866C145.808 91.0606 145.773 91.039 145.734 91.0217C145.795 91.0476 145.829 91.0649 145.851 91.0866C146.033 91.0173 146.249 90.7706 146.422 90.6711C146.639 90.5455 146.859 90.4373 147.089 90.3378C147.855 90.0088 147.193 88.8921 146.435 89.2167C145.565 89.589 143.925 90.5326 144.635 91.7012C144.929 92.1903 145.509 92.3721 146.028 92.5193C146.5 92.6535 147.058 92.6491 146.985 93.2378C146.877 94.0645 148.179 94.0559 148.283 93.2378C148.426 92.0821 147.53 91.58 146.565 91.316Z" fill="#E0A800"/>
<path d="M103.28 153.212C103.081 153.156 102.882 153.082 102.683 153.039C102.644 153.03 102.613 153.013 102.583 152.991C102.683 153.091 102.28 153.086 102.561 152.983C102.522 152.957 102.488 152.935 102.449 152.918C102.509 152.944 102.544 152.961 102.566 152.983C102.747 152.913 102.964 152.667 103.137 152.567C103.353 152.442 103.574 152.333 103.804 152.234C104.57 151.905 103.907 150.788 103.15 151.113C102.28 151.485 100.64 152.429 101.349 153.597C101.644 154.086 102.224 154.268 102.743 154.415C103.215 154.549 103.773 154.545 103.7 155.134C103.591 155.961 104.894 155.952 104.998 155.134C105.141 153.978 104.245 153.476 103.28 153.212Z" fill="#E0A800"/>
<path d="M57.5719 112.399C57.2213 112.72 56.4422 112.508 56.0093 112.499C55.174 112.482 55.174 113.78 56.0093 113.797C56.8923 113.819 57.7797 113.971 58.4895 113.317C59.1085 112.75 58.1865 111.832 57.5719 112.399Z" fill="#E0A800"/>
<path d="M88.1563 56.2517C87.8144 56.321 87.6153 56.7279 87.7018 57.0525C87.7927 57.3858 88.113 57.5459 88.4377 57.507C88.4463 57.5113 88.4463 57.5113 88.4593 57.5156C88.4463 57.5113 88.4463 57.507 88.442 57.507C88.455 57.5113 88.481 57.5243 88.4939 57.5329C88.6065 57.5892 88.6801 57.6455 88.7666 57.7191C88.9528 57.8749 89.1259 58.0523 89.3163 58.2082C89.589 58.4289 89.9699 58.4722 90.234 58.2082C90.4634 57.9787 90.5066 57.5113 90.234 57.2905C89.615 56.7798 89.048 56.0699 88.1563 56.2517Z" fill="#E0A800"/>
<path d="M95.8393 9.4144C95.7917 9.1244 95.48 8.95559 95.2117 8.93828C94.61 8.89933 93.9564 9.21963 93.4846 9.57023C93.2033 9.77799 93.0605 10.1329 93.2509 10.4575C93.4111 10.7346 93.8569 10.899 94.1382 10.6913C94.32 10.5571 94.5191 10.4359 94.7269 10.345C94.7572 10.332 94.7788 10.3277 94.8091 10.319C94.9779 10.4619 95.2247 10.5268 95.4281 10.4705C95.796 10.371 95.9388 10.0204 95.8826 9.66978C95.8653 9.58321 95.8523 9.50097 95.8393 9.4144Z" fill="#E0A800"/>
<path d="M23.1144 16.4049C22.3006 16.3746 21.5562 16.7165 20.7381 16.7035C19.8118 16.6905 18.9029 16.7641 18.0588 16.3183C17.4312 15.985 16.7127 16.816 17.2711 17.3398C17.336 17.3961 17.3966 17.4566 17.4615 17.5129C17.6173 17.6601 17.7948 17.7034 17.9636 17.6861C18.6215 17.9241 19.2794 17.9847 20.0239 17.989C20.5606 17.9934 21.106 18.041 21.6427 17.9674C22.1492 17.8981 22.5993 17.6861 23.1187 17.7034C23.9541 17.7337 23.9498 16.4352 23.1144 16.4049Z" fill="#E0A800"/>
<path d="M20.4789 59.2036C19.453 59.9004 18.0939 60.3852 17.5832 61.6101C17.449 61.9348 17.7303 62.32 18.0377 62.4109C18.4099 62.5191 18.7042 62.281 18.8384 61.9564C18.9942 61.5798 19.5526 61.2898 19.8772 61.0864C20.2928 60.8267 20.7299 60.5973 21.1368 60.3246C21.825 59.8572 21.1757 58.7318 20.4789 59.2036Z" fill="#E0A800"/>
<path d="M28.1959 105.881C27.3432 105.764 26.603 105.175 25.7157 105.279C25.3651 105.323 25.0708 105.548 25.0665 105.929C25.0621 106.249 25.3694 106.621 25.7157 106.578C26.4559 106.487 27.1268 107.032 27.8496 107.132C28.2002 107.179 28.5421 107.045 28.6504 106.677C28.7326 106.379 28.5421 105.929 28.1959 105.881Z" fill="#E0A800"/>
<path d="M161.337 123.749C160.389 123.874 159.896 124.601 159.272 125.246C158.671 125.874 158.19 126.475 157.896 127.259C157.199 127.488 157.55 128.631 158.333 128.484C158.411 128.471 158.489 128.454 158.567 128.441C158.783 128.402 158.965 128.189 159.021 127.986C159.216 127.289 159.567 126.8 160.069 126.285C160.363 125.982 160.891 125.103 161.337 125.043C162.151 124.939 162.164 123.64 161.337 123.749Z" fill="#E0A800"/>
<path d="M164.55 145.192C164.164 145.001 163.779 144.806 163.394 144.616C163.082 144.46 162.693 144.534 162.507 144.85C162.338 145.14 162.424 145.581 162.74 145.737C163.125 145.928 163.511 146.122 163.896 146.313C164.208 146.469 164.597 146.395 164.783 146.079C164.952 145.793 164.866 145.352 164.55 145.192Z" fill="#E0A800"/>
<path d="M180.684 120.031C180.147 120.931 179.437 121.697 178.767 122.498C178.234 123.134 179.147 124.056 179.684 123.416C180.424 122.533 181.216 121.684 181.805 120.689C182.234 119.966 181.112 119.312 180.684 120.031Z" fill="#E0A800"/>
<path d="M195.216 63.9219C194.532 64.5971 194.731 65.5407 194.735 66.4021C194.744 67.2375 196.042 67.2375 196.034 66.4021C196.029 65.9866 195.804 65.1685 196.133 64.8395C196.726 64.2509 195.809 63.3333 195.216 63.9219Z" fill="#E0A800"/>
<path d="M27.1572 142.508H24.5601C23.7247 142.508 23.7247 143.806 24.5601 143.806H27.1572C27.9925 143.806 27.9925 142.508 27.1572 142.508Z" fill="#E0A800"/>
<path d="M46.418 140.56C46.4267 142.794 46.8508 145.14 45.6389 147.157C45.2104 147.875 46.3314 148.529 46.7599 147.81C48.1061 145.564 47.7252 143.053 47.7122 140.556C47.7122 139.725 46.4137 139.721 46.418 140.56Z" fill="#E0A800"/>
<path d="M44.4703 162.418C43.6349 162.418 43.6349 163.717 44.4703 163.717C45.3057 163.717 45.3057 162.418 44.4703 162.418Z" fill="#E0A800"/>
</g>
<defs>
<linearGradient id="paint0_linear_91_6310" x1="105.499" y1="114.508" x2="105.499" y2="18.75" gradientUnits="userSpaceOnUse">
<stop stop-color="white"/>
<stop offset="0.9952" stop-color="#E0A800" stop-opacity="0"/>
</linearGradient>
<linearGradient id="paint1_linear_91_6310" x1="105.499" y1="96.4907" x2="105.499" y2="192.248" gradientUnits="userSpaceOnUse">
<stop stop-color="white"/>
<stop offset="0.9952" stop-color="#E0A800" stop-opacity="0"/>
</linearGradient>
<linearGradient id="paint2_linear_91_6310" x1="96.4911" y1="105.499" x2="192.249" y2="105.499" gradientUnits="userSpaceOnUse">
<stop stop-color="white"/>
<stop offset="1" stop-color="#E0A800" stop-opacity="0"/>
</linearGradient>
<linearGradient id="paint3_linear_91_6310" x1="114.508" y1="105.499" x2="18.75" y2="105.499" gradientUnits="userSpaceOnUse">
<stop stop-color="white"/>
<stop offset="0.9952" stop-color="#E0A800" stop-opacity="0"/>
</linearGradient>
<linearGradient id="paint4_linear_91_6310" x1="99.1305" y1="111.869" x2="166.841" y2="44.1584" gradientUnits="userSpaceOnUse">
<stop stop-color="white"/>
<stop offset="0.9952" stop-color="#E0A800" stop-opacity="0"/>
</linearGradient>
<linearGradient id="paint5_linear_91_6310" x1="111.87" y1="99.1295" x2="44.1589" y2="166.84" gradientUnits="userSpaceOnUse">
<stop stop-color="white"/>
<stop offset="0.9952" stop-color="#E0A800" stop-opacity="0"/>
</linearGradient>
<linearGradient id="paint6_linear_91_6310" x1="99.1305" y1="99.1295" x2="166.841" y2="166.84" gradientUnits="userSpaceOnUse">
<stop stop-color="white"/>
<stop offset="0.9952" stop-color="#E0A800" stop-opacity="0"/>
</linearGradient>
<linearGradient id="paint7_linear_91_6310" x1="111.87" y1="111.869" x2="44.1589" y2="44.1584" gradientUnits="userSpaceOnUse">
<stop stop-color="white"/>
<stop offset="0.9952" stop-color="#E0A800" stop-opacity="0"/>
</linearGradient>
<clipPath id="clip0_91_6310">
<rect width="211" height="211" fill="white"/>
</clipPath>
</defs>
</svg>
