<svg width="24" height="24" viewBox="0 0 24 24" fill="none" xmlns="http://www.w3.org/2000/svg">
<path d="M9.5 17C10.0523 17 10.5 17.4477 10.5 18C10.5 18.5523 10.0523 19 9.5 19H4C3.44772 19 3 18.5523 3 18C3 17.4477 3.44772 17 4 17H9.5ZM20 17C20.5523 17 21 17.4477 21 18C21 18.5523 20.5523 19 20 19H14.5C13.9477 19 13.5 18.5523 13.5 18C13.5 17.4477 13.9477 17 14.5 17H20ZM9.5 13C10.0523 13 10.5 13.4477 10.5 14C10.5 14.5523 10.0523 15 9.5 15H4C3.44772 15 3 14.5523 3 14C3 13.4477 3.44772 13 4 13H9.5ZM20 13C20.5523 13 21 13.4477 21 14C21 14.5523 20.5523 15 20 15H14.5C13.9477 15 13.5 14.5523 13.5 14C13.5 13.4477 13.9477 13 14.5 13H20ZM9.5 9C10.0523 9 10.5 9.44772 10.5 10C10.5 10.5523 10.0523 11 9.5 11H4C3.44772 11 3 10.5523 3 10C3 9.44772 3.44772 9 4 9H9.5ZM20 9C20.5523 9 21 9.44772 21 10C21 10.5523 20.5523 11 20 11H14.5C13.9477 11 13.5 10.5523 13.5 10C13.5 9.44772 13.9477 9 14.5 9H20ZM9.5 5C10.0523 5 10.5 5.44772 10.5 6C10.5 6.55228 10.0523 7 9.5 7H4C3.44772 7 3 6.55228 3 6C3 5.44772 3.44772 5 4 5H9.5ZM20 5C20.5523 5 21 5.44772 21 6C21 6.55228 20.5523 7 20 7H14.5C13.9477 7 13.5 6.55228 13.5 6C13.5 5.44772 13.9477 5 14.5 5H20Z" fill="#6E7684"/>
</svg>
