<svg width="84" height="84" viewBox="0 0 84 84" fill="none" xmlns="http://www.w3.org/2000/svg">
<path d="M78.4407 62.3198C82.061 56.0498 83.9659 48.9485 83.966 41.7214V41.6717C83.9755 34.3853 82.0478 27.2256 78.3777 20.9158C78.3696 20.8964 78.3602 20.8777 78.3494 20.8597C78.3342 20.8316 78.3147 20.8057 78.2973 20.7776C74.6225 14.5133 69.376 9.30066 63.0691 5.64769C63.0408 5.62827 63.0126 5.60884 62.9821 5.59158L62.9234 5.56137C56.5855 1.93333 49.4013 0.0160011 42.0854 9.97203e-05C34.7695 -0.0158016 27.5769 1.87028 21.223 5.47073C21.1483 5.50131 21.0757 5.53663 21.0056 5.57647C20.9295 5.62056 20.8568 5.67034 20.7883 5.72538C14.6205 9.33206 9.47635 14.4349 5.83828 20.5554C5.76124 20.6409 5.69349 20.7342 5.63614 20.8338C5.58078 20.9283 5.53491 21.0281 5.4992 21.1316C1.96819 27.2877 0.0867565 34.2401 0.0347789 41.3243C-0.011593 41.5536 -0.011593 41.7898 0.0347789 42.0192C0.088097 49.078 1.95868 56.0061 5.46877 62.145C5.54432 62.4046 5.68318 62.6418 5.87306 62.8355C9.48161 68.8855 14.5642 73.9376 20.6535 77.5274C20.7527 77.6236 20.8637 77.707 20.9839 77.7756C21.0992 77.8411 21.2218 77.8932 21.3491 77.931C27.5329 81.4143 34.5105 83.2714 41.62 83.326C41.8517 83.3721 42.0904 83.3721 42.3221 83.326C49.4607 83.2818 56.4683 81.4181 62.6735 77.9137C62.7744 77.8795 62.8719 77.8362 62.9647 77.7842C63.0645 77.7273 63.1584 77.6608 63.2451 77.5857C69.4074 73.9763 74.5467 68.8738 78.1821 62.7557C78.2394 62.6881 78.291 62.6159 78.3364 62.5399C78.376 62.4688 78.4108 62.3953 78.4407 62.3198ZM62.6952 73.8782L61.5889 71.9748C61.3583 71.5782 60.9784 71.2887 60.5329 71.1701C60.0873 71.0516 59.6126 71.1136 59.2131 71.3425C58.8136 71.5714 58.5221 71.9486 58.4026 72.3909C58.2832 72.8333 58.3457 73.3046 58.5762 73.7012L59.6826 75.6046C54.7338 78.1593 49.2814 79.6068 43.7088 79.8451V77.6483C43.7088 77.1904 43.5256 76.7513 43.1995 76.4275C42.8734 76.1037 42.4311 75.9218 41.97 75.9218C41.5088 75.9218 41.0665 76.1037 40.7404 76.4275C40.4143 76.7513 40.2311 77.1904 40.2311 77.6483V79.843C34.6599 79.5945 29.2108 78.139 24.266 75.5787L25.368 73.6861C25.4822 73.4897 25.5563 73.2729 25.5861 73.0481C25.6159 72.8233 25.6008 72.5948 25.5416 72.3758C25.4825 72.1568 25.3805 71.9515 25.2414 71.7716C25.1024 71.5917 24.929 71.4408 24.7312 71.3274C24.5334 71.214 24.315 71.1405 24.0886 71.1109C23.8621 71.0813 23.632 71.0963 23.4114 71.155C23.1908 71.2138 22.984 71.315 22.8028 71.4531C22.6216 71.5912 22.4696 71.7633 22.3554 71.9597L21.2578 73.8415C16.5699 70.8496 12.5859 66.8905 9.57687 62.2334L11.4788 61.1436C11.6766 61.0303 11.85 60.8793 11.989 60.6995C12.1281 60.5196 12.2301 60.3143 12.2892 60.0952C12.3484 59.8762 12.3635 59.6478 12.3337 59.4229C12.3039 59.1981 12.2298 58.9813 12.1156 58.7849C12.0015 58.5885 11.8494 58.4164 11.6682 58.2783C11.4871 58.1402 11.2803 58.039 11.0597 57.9802C10.839 57.9215 10.609 57.9065 10.3825 57.9361C10.1561 57.9657 9.9377 58.0392 9.73989 58.1526L7.83582 59.2446C5.26022 54.3339 3.79868 48.9229 3.55383 43.3917H5.76438C6.22556 43.3917 6.66785 43.2098 6.99395 42.886C7.32005 42.5622 7.50326 42.1231 7.50326 41.6652C7.50326 41.2074 7.32005 40.7682 6.99395 40.4445C6.66785 40.1207 6.22556 39.9388 5.76438 39.9388H3.55383C3.79868 34.4062 5.26021 28.9938 7.83582 24.0816L9.7551 25.1822C10.1546 25.4111 10.6293 25.4731 11.0749 25.3545C11.5204 25.236 11.9003 24.9465 12.1308 24.5499C12.3614 24.1533 12.4239 23.6819 12.3044 23.2396C12.185 22.7972 11.8935 22.4201 11.494 22.1912L9.57904 21.0927C12.5908 16.4329 16.5785 12.4723 21.2708 9.48035L22.3815 11.3924C22.5344 11.6552 22.7543 11.8734 23.0191 12.0249C23.2839 12.1765 23.5843 12.256 23.89 12.2556C24.1951 12.2553 24.4947 12.1753 24.7588 12.0236C25.0229 11.872 25.2422 11.654 25.3946 11.3916C25.547 11.1292 25.6272 10.8316 25.6271 10.5287C25.627 10.2258 25.5467 9.92826 25.3941 9.66594L24.2812 7.75177C29.2307 5.19029 34.6854 3.73692 40.2615 3.49397V5.72538C40.2615 6.18325 40.4447 6.62238 40.7708 6.94614C41.0969 7.26991 41.5392 7.4518 42.0004 7.4518C42.4616 7.4518 42.9039 7.26991 43.23 6.94614C43.5561 6.62238 43.7393 6.18325 43.7393 5.72538V3.50045C49.3168 3.7434 54.7729 5.19674 59.7239 7.75824L58.6023 9.68752C58.4882 9.88392 58.4141 10.1007 58.3843 10.3255C58.3545 10.5504 58.3696 10.7788 58.4287 10.9978C58.4879 11.2169 58.5899 11.4222 58.7289 11.6021C58.868 11.782 59.0414 11.9329 59.2392 12.0463C59.437 12.1596 59.6554 12.2332 59.8818 12.2628C60.1083 12.2923 60.3384 12.2773 60.559 12.2186C60.7796 12.1599 60.9864 12.0586 61.1676 11.9205C61.3487 11.7825 61.5008 11.6103 61.6149 11.4139L62.7343 9.48899C67.4288 12.4841 71.4181 16.4485 74.4305 21.1121L72.4916 22.2235C72.0921 22.4525 71.8006 22.8296 71.6812 23.2719C71.5617 23.7143 71.6242 24.1856 71.8548 24.5823C72.0853 24.9789 72.4652 25.2683 72.9107 25.3869C73.3563 25.5055 73.831 25.4435 74.2305 25.2146L76.1715 24.101C78.7507 29.0182 80.2138 34.4367 80.4578 39.9755H78.206C77.7448 39.9755 77.3025 40.1574 76.9764 40.4812C76.6503 40.8049 76.4671 41.2441 76.4671 41.7019C76.4671 42.1598 76.6503 42.5989 76.9764 42.9227C77.3025 43.2465 77.7448 43.4284 78.206 43.4284H80.4578C80.2077 48.9646 78.7394 54.3793 76.1563 59.292L74.2261 58.185C74.0283 58.0716 73.81 57.9981 73.5835 57.9685C73.3571 57.9389 73.127 57.9539 72.9064 58.0126C72.6858 58.0713 72.479 58.1726 72.2978 58.3107C72.1166 58.4487 71.9646 58.6209 71.8504 58.8173C71.7362 59.0137 71.6621 59.2305 71.6323 59.4553C71.6026 59.6801 71.6177 59.9086 71.6768 60.1276C71.7359 60.3466 71.838 60.5519 71.977 60.7318C72.1161 60.9117 72.2895 61.0627 72.4873 61.176L74.4109 62.2788C71.3908 66.9363 67.3948 70.8927 62.6952 73.8782ZM42.0004 10.0004C24.4051 10.0004 10.092 24.2111 10.092 41.6803C10.092 59.1496 24.4051 73.3603 42.0004 73.3603C59.5957 73.3603 73.9088 59.1496 73.9088 41.6803C73.9088 24.2111 59.5913 9.99181 42.0004 9.99181V10.0004ZM42.0004 69.9074C26.3223 69.9074 13.5698 57.2441 13.5698 41.6803C13.5698 34.1941 16.5651 27.0144 21.8969 21.7208C27.2287 16.4272 34.4601 13.4533 42.0004 13.4533C49.5407 13.4533 56.7721 16.4272 62.1039 21.7208C67.4357 27.0144 70.431 34.1941 70.431 41.6803C70.431 57.2354 57.6786 69.8988 42.0004 69.8988V69.9074ZM42.0004 35.9616C40.8607 35.9616 39.7467 36.2971 38.7991 36.9257C37.8515 37.5543 37.1129 38.4478 36.6768 39.4932C36.2407 40.5386 36.1266 41.6889 36.3489 42.7986C36.5713 43.9084 37.1201 44.9277 37.9259 45.7278C38.7318 46.5279 39.7585 47.0728 40.8763 47.2935C41.994 47.5143 43.1526 47.401 44.2055 46.968C45.2584 46.535 46.1583 45.8017 46.7915 44.8609C47.4247 43.9201 47.7626 42.814 47.7626 41.6825C47.7632 40.1642 47.1566 38.7079 46.0761 37.6335C44.9956 36.5591 43.5296 35.9546 42.0004 35.9529V35.9616ZM42.0004 43.9463C41.5486 43.9463 41.1069 43.8133 40.7312 43.564C40.3556 43.3148 40.0628 42.9606 39.8898 42.5461C39.7169 42.1317 39.6717 41.6757 39.7598 41.2357C39.848 40.7957 40.0656 40.3916 40.3851 40.0744C40.7045 39.7572 41.1116 39.5412 41.5547 39.4537C41.9979 39.3662 42.4572 39.4111 42.8746 39.5827C43.2921 39.7544 43.6488 40.0451 43.8999 40.4181C44.1509 40.7911 44.2849 41.2296 44.2849 41.6782C44.2826 42.2786 44.041 42.8538 43.613 43.2779C43.1849 43.7021 42.6052 43.9408 42.0004 43.942V43.9463ZM64.4928 49.6068C66.3216 44.4851 66.3216 38.895 64.4928 33.7733C64.3363 33.3417 64.1646 32.9101 63.982 32.4785C63.0314 30.2384 61.7373 28.1579 60.1456 26.3108C57.67 23.4197 54.5301 21.1624 50.991 19.7295C47.452 18.2965 43.6176 17.7301 39.8116 18.078C39.0878 18.1427 38.3683 18.2398 37.6576 18.3693C32.272 19.3637 27.3926 22.1614 23.8335 26.2957C21.9347 28.4935 20.4609 31.0205 19.4863 33.7496C17.6517 38.8806 17.6517 44.4822 19.4863 49.6133C19.6102 49.9564 19.7384 50.2952 19.8775 50.6297C20.84 52.9743 22.1781 55.1489 23.84 57.0693C26.0755 59.6804 28.8562 61.7776 31.9895 63.2152C35.1228 64.6529 38.5335 65.3967 41.9852 65.395H42.5547C47.3891 65.2692 52.0721 63.6938 55.9877 60.8758C59.9034 58.0579 62.8684 54.1293 64.4928 49.6068ZM60.5499 50.0794C60.5303 50.1247 60.5107 50.17 60.489 50.2132C60.376 50.4571 60.2564 50.6966 60.1347 50.934L60.0586 51.0786C59.8007 51.5677 59.521 52.0461 59.2196 52.5137L59.1349 52.6475C58.9871 52.8762 58.8349 53.1007 58.6762 53.3208C58.6523 53.3575 58.6262 53.392 58.6002 53.4265C58.5328 53.5215 58.461 53.6121 58.3828 53.7049L46.8845 47.1143C46.6203 46.9628 46.3206 46.883 46.0155 46.883C45.7104 46.8829 45.4107 46.9625 45.1464 47.1138C44.8821 47.2651 44.6625 47.4828 44.5098 47.745C44.357 48.0072 44.2765 48.3047 44.2762 48.6076V61.8126C44.1544 61.8277 44.0349 61.8428 43.9132 61.8536H43.8284C43.5415 61.8795 43.2524 61.899 42.959 61.9141H42.8698C42.2815 61.94 41.6925 61.94 41.1027 61.9141H41.0158C40.7267 61.9011 40.4376 61.8817 40.1463 61.8579H40.0616C39.9398 61.8472 39.8203 61.8299 39.7007 61.8169V48.6033C39.7004 48.3004 39.6199 48.0029 39.4671 47.7407C39.3144 47.4785 39.0948 47.2608 38.8305 47.1095C38.5662 46.9582 38.2665 46.8786 37.9614 46.8787C37.6563 46.8787 37.3566 46.9585 37.0924 47.11L25.5724 53.7135C25.505 53.6229 25.4333 53.5323 25.355 53.4373L25.2768 53.3294C25.1181 53.1136 24.9681 52.8848 24.8203 52.6583L24.7312 52.5223C24.5812 52.2892 24.4356 52.0518 24.2965 51.8145C24.1573 51.5771 24.0226 51.3332 23.8943 51.0894L23.8183 50.9469C23.6944 50.7074 23.5748 50.4679 23.4618 50.224L23.4031 50.0945C23.3553 49.9952 23.314 49.8938 23.2705 49.7924L34.7906 43.1845C35.0551 43.033 35.2748 42.8151 35.4275 42.5525C35.5803 42.29 35.6607 41.9922 35.6607 41.689C35.6607 41.3858 35.5803 41.088 35.4275 40.8254C35.2748 40.5629 35.0551 40.3449 34.7906 40.1935L23.2705 33.5856C23.314 33.4863 23.3553 33.3849 23.4009 33.2856C23.4205 33.2424 23.4422 33.1971 23.4618 33.1518C23.577 32.9101 23.6944 32.6706 23.8183 32.4332L23.8965 32.2864C24.0226 32.0447 24.1552 31.8052 24.2921 31.5678C24.4312 31.3304 24.5769 31.0952 24.7268 30.8621L24.8159 30.724C24.9638 30.5082 25.1159 30.2751 25.2724 30.055C25.2985 30.0183 25.3267 29.9817 25.3528 29.9428C25.4202 29.85 25.4898 29.7594 25.5593 29.6687L37.0794 36.2723C37.3438 36.4239 37.6436 36.5036 37.9489 36.5036C38.2542 36.5036 38.5541 36.4238 38.8184 36.2722C39.0828 36.1206 39.3023 35.9027 39.4549 35.6402C39.6075 35.3776 39.6878 35.0799 39.6877 34.7768V21.5696L39.9985 21.5351L40.1528 21.52C40.4159 21.4984 40.681 21.4812 40.9462 21.4682H41.1397C41.3874 21.4682 41.6352 21.4531 41.883 21.451H41.9852C42.2504 21.451 42.5155 21.451 42.7807 21.4682H42.9785C43.2459 21.4812 43.5111 21.4984 43.7762 21.5222L43.9262 21.5373L44.2544 21.574V34.7768C44.2544 35.0799 44.3346 35.3776 44.4872 35.6402C44.6398 35.9027 44.8593 36.1206 45.1237 36.2722C45.388 36.4238 45.6879 36.5036 45.9932 36.5036C46.2985 36.5036 46.5984 36.4239 46.8627 36.2723L58.3611 29.6817C58.4306 29.7723 58.5002 29.863 58.5676 29.9558C58.5936 29.9924 58.6219 30.0291 58.648 30.068C58.8045 30.2838 58.9566 30.4996 59.1023 30.737L59.1914 30.8751C59.3414 31.1081 59.487 31.3434 59.6261 31.5829C59.7652 31.8225 59.8978 32.0642 60.0282 32.308L60.1021 32.4504C60.2267 32.6907 60.3463 32.9324 60.4608 33.1755L60.5194 33.3029C60.5651 33.4021 60.6064 33.5057 60.652 33.6071L49.1472 40.1999C48.8827 40.3514 48.663 40.5694 48.5102 40.8319C48.3575 41.0944 48.2771 41.3923 48.2771 41.6955C48.2771 41.9986 48.3575 42.2965 48.5102 42.559C48.663 42.8215 48.8827 43.0395 49.1472 43.191L60.6781 49.7751C60.639 49.8873 60.5955 49.9758 60.5499 50.0751V50.0794ZM56.044 56.3377C53.7021 58.5555 50.864 60.1907 47.7626 61.1091V51.5943L56.044 56.3377ZM36.2404 61.1091C33.1337 60.2002 30.2882 58.5731 27.9372 56.3614L36.2404 51.6138V61.1091ZM21.5838 41.6868C21.5839 40.0808 21.7765 38.4805 22.1576 36.9197L30.476 41.6868L22.1576 46.4539C21.7765 44.8931 21.5839 43.2928 21.5838 41.6868ZM27.9394 27.0122C30.2896 24.8005 33.1343 23.1735 36.2404 22.2645V31.7879L27.9394 27.0122ZM47.7626 22.2645C50.8627 23.1823 53.6999 24.8159 56.0418 27.0316L47.7626 31.7793V22.2645ZM53.5248 41.6868L61.8149 36.9392C62.5757 40.0592 62.5757 43.3144 61.8149 46.4345L53.5248 41.6868Z" fill="black"/>
</svg>
