<svg width="17" height="17" viewBox="0 0 17 17" fill="none" xmlns="http://www.w3.org/2000/svg">
<path fill-rule="evenodd" clip-rule="evenodd" d="M7.74408 0.244078C8.06951 -0.0813592 8.59715 -0.0813592 8.92259 0.244078L13.0893 4.41074C13.4147 4.73618 13.4147 5.26382 13.0893 5.58925C12.7638 5.91469 12.2362 5.91469 11.9107 5.58925L9.16667 2.84518V10.8333C9.16667 11.2936 8.79357 11.6667 8.33333 11.6667C7.87309 11.6667 7.5 11.2936 7.5 10.8333V2.84518L4.75592 5.58925C4.43048 5.91469 3.90285 5.91469 3.57741 5.58925C3.25197 5.26382 3.25197 4.73618 3.57741 4.41074L7.74408 0.244078ZM0.833333 10C1.29357 10 1.66667 10.3731 1.66667 10.8333V14.1667C1.66667 14.3877 1.75446 14.5996 1.91074 14.7559C2.06702 14.9122 2.27899 15 2.5 15H14.1667C14.3877 15 14.5996 14.9122 14.7559 14.7559C14.9122 14.5996 15 14.3877 15 14.1667V10.8333C15 10.3731 15.3731 10 15.8333 10C16.2936 10 16.6667 10.3731 16.6667 10.8333V14.1667C16.6667 14.8297 16.4033 15.4656 15.9344 15.9344C15.4656 16.4033 14.8297 16.6667 14.1667 16.6667H2.5C1.83696 16.6667 1.20107 16.4033 0.732233 15.9344C0.263392 15.4656 0 14.8297 0 14.1667V10.8333C0 10.3731 0.373096 10 0.833333 10Z" fill="#272727"/>
</svg>
