<svg width="20" height="20" viewBox="0 0 20 20" fill="none" xmlns="http://www.w3.org/2000/svg">
<path d="M1.96531 1.91037C2.29073 1.58527 2.81867 1.58516 3.14402 1.91037L5.37058 4.13693C6.79758 3.33607 8.41113 2.91389 10.0552 2.91623C14.3969 2.9166 18.0618 5.80447 19.2407 9.76096C19.2868 9.9162 19.2861 10.0814 19.2397 10.2365C18.6907 12.0737 17.6057 13.6956 16.1362 14.9035L18.144 16.9104C18.4692 17.2357 18.4691 17.7637 18.144 18.0891C17.8186 18.4145 17.2908 18.4143 16.9653 18.0891L1.96531 3.08908C1.64 2.76363 1.63991 2.23576 1.96531 1.91037ZM2.73582 6.31369C3.03337 5.9629 3.55862 5.91965 3.90965 6.21701C4.26061 6.51456 4.30379 7.03976 4.00632 7.39084C3.35482 8.15979 2.8585 9.04644 2.5405 10.0012C3.58866 13.1487 6.55868 15.4162 10.0552 15.4162C10.8047 15.4162 11.5281 15.3119 12.2134 15.1184C12.6562 14.9933 13.1175 15.2517 13.2427 15.6945C13.3674 16.1371 13.1098 16.5975 12.6675 16.7229C11.8367 16.9575 10.9599 17.0831 10.0552 17.0832C5.7131 17.0832 2.04663 14.196 0.867653 10.2375C0.821484 10.0824 0.821434 9.91708 0.867653 9.76193C1.24542 8.49604 1.88183 7.32161 2.73582 6.31369ZM10.0532 4.58322C8.85471 4.5814 7.67633 4.85344 6.60593 5.37228L8.36179 7.12912C8.49554 7.05028 8.63569 6.97981 8.77976 6.92014C9.18396 6.75283 9.61769 6.66624 10.0552 6.66623C10.4927 6.66629 10.9263 6.75275 11.3305 6.92014C11.7349 7.08765 12.1031 7.33332 12.4126 7.64279C12.722 7.95231 12.9677 8.32045 13.1352 8.72482C13.3027 9.12917 13.3882 9.56355 13.3882 10.0012C13.3881 10.4385 13.3025 10.8716 13.1352 11.2756C13.0756 11.4195 13.005 11.559 12.9262 11.6926L14.9526 13.719C16.1664 12.7621 17.0751 11.4684 17.5659 9.99631C16.5176 6.85091 13.5509 4.58358 10.0552 4.58322H10.0532ZM10.0552 8.33322C9.90953 8.33323 9.76457 8.35339 9.62449 8.39084L11.6626 10.4299C11.6999 10.2902 11.7211 10.1464 11.7212 10.0012C11.7212 9.78233 11.678 9.56473 11.5942 9.36252C11.5104 9.16039 11.3876 8.97622 11.2329 8.8215C11.0782 8.66692 10.8949 8.54387 10.6928 8.46017C10.4908 8.37647 10.2739 8.33329 10.0552 8.33322Z" fill="#8B94A3"/>
</svg>
