<svg width="20" height="20" viewBox="0 0 20 20" fill="none" xmlns="http://www.w3.org/2000/svg">
<path d="M10.0007 2.91699C14.2351 2.91701 17.8261 5.66289 19.0945 9.46875H19.0935C19.2092 9.81366 19.2092 10.1863 19.0935 10.5303C17.8277 14.3367 14.2356 17.083 10.0007 17.083C5.76641 17.083 2.17529 14.3372 0.906953 10.5312H0.905976C0.791784 10.1878 0.791732 9.81612 0.905976 9.47266C2.17172 5.6648 5.76466 2.91704 10.0007 2.91699ZM10.0007 4.58301C6.50378 4.58306 3.53412 6.85135 2.48801 9.99805C2.48737 9.99998 2.48744 10.0029 2.48801 10.0049L2.59152 10.2969C3.72198 13.2898 6.61423 15.4169 10.0007 15.417C13.4977 15.417 16.4671 13.1485 17.5124 10.002L17.5134 9.99805L17.5124 9.99512C16.464 6.8494 13.4962 4.58302 10.0007 4.58301ZM10.0007 6.66699C10.8847 6.667 11.732 7.01844 12.3571 7.64355C12.9823 8.26867 13.3337 9.11595 13.3337 10C13.3337 10.884 12.9823 11.7313 12.3571 12.3564C11.732 12.9816 10.8847 13.333 10.0007 13.333C9.11666 13.333 8.26938 12.9816 7.64426 12.3564C7.01914 11.7313 6.66769 10.8841 6.66769 10C6.6677 9.11595 7.01914 8.26868 7.64426 7.64355C8.26938 7.01844 9.11666 6.66699 10.0007 6.66699ZM10.0007 8.33301C9.55868 8.33301 9.13455 8.50874 8.82199 8.82129C8.50943 9.13385 8.33371 9.55797 8.33371 10C8.33371 10.442 8.50943 10.8662 8.82199 11.1787C9.13455 11.4913 9.55868 11.667 10.0007 11.667C10.4427 11.667 10.8669 11.4913 11.1794 11.1787C11.492 10.8662 11.6677 10.442 11.6677 10C11.6677 9.55798 11.492 9.13385 11.1794 8.82129C10.8669 8.50874 10.4427 8.33302 10.0007 8.33301Z" fill="#6E7684"/>
</svg>
