<svg width="22" height="20" viewBox="0 0 22 20" fill="none" xmlns="http://www.w3.org/2000/svg">
<path d="M10.9992 0C11.9542 0 12.8442 0.467 13.3892 1.247L13.4942 1.407L21.6082 14.955C21.8548 15.3821 21.989 15.8648 21.9981 16.3578C22.0073 16.8509 21.8912 17.3382 21.6607 17.7742C21.4302 18.2101 21.0928 18.5805 20.6801 18.8505C20.2674 19.1205 19.793 19.2814 19.3012 19.318L19.1062 19.326H2.88121C2.38891 19.3205 1.90605 19.1903 1.47768 18.9476C1.04932 18.7049 0.689416 18.3577 0.431578 17.9383C0.17374 17.5189 0.02637 17.041 0.00322288 16.5492C-0.0199242 16.0574 0.0819067 15.5678 0.299211 15.126L0.398211 14.941L8.50821 1.403C8.76787 0.974813 9.1335 0.620768 9.56983 0.375019C10.0062 0.12927 10.4984 0.000110167 10.9992 0ZM11.0092 13.33L10.8822 13.337C10.6392 13.3659 10.4152 13.483 10.2526 13.666C10.0901 13.849 10.0003 14.0852 10.0003 14.33C10.0003 14.5748 10.0901 14.811 10.2526 14.994C10.4152 15.177 10.6392 15.2941 10.8822 15.323L10.9992 15.33L11.1262 15.323C11.3693 15.2941 11.5933 15.177 11.7558 14.994C11.9183 14.811 12.0081 14.5748 12.0081 14.33C12.0081 14.0852 11.9183 13.849 11.7558 13.666C11.5933 13.483 11.3693 13.3659 11.1262 13.337L11.0092 13.33ZM10.9992 6.33C10.7543 6.33003 10.5179 6.41996 10.3348 6.58272C10.1518 6.74547 10.0349 6.96975 10.0062 7.213L9.99921 7.33V11.33L10.0062 11.447C10.0351 11.69 10.1522 11.9141 10.3352 12.0766C10.5182 12.2391 10.7544 12.3289 10.9992 12.3289C11.244 12.3289 11.4802 12.2391 11.6632 12.0766C11.8463 11.9141 11.9633 11.69 11.9922 11.447L11.9992 11.33V7.33L11.9922 7.213C11.9636 6.96975 11.8466 6.74547 11.6636 6.58272C11.4805 6.41996 11.2441 6.33003 10.9992 6.33Z" fill="#C62828"/>
</svg>
